<?xml version="1.0" encoding="UTF-8" standalone="no"?>
<!-- Created with Inkscape (http://www.inkscape.org/) -->

<svg
   width="12in"
   height="12in"
   viewBox="0 0 304.8 304.8"
   version="1.1"
   id="svg1"
   sodipodi:docname="12x12in_left2x.svg"
   inkscape:version="1.4 (e7c3feb100, 2024-10-09)"
   inkscape:export-filename="../PDF/12x12in_left2x.pdf"
   inkscape:export-xdpi="47.96"
   inkscape:export-ydpi="47.96"
   xmlns:inkscape="http://www.inkscape.org/namespaces/inkscape"
   xmlns:sodipodi="http://sodipodi.sourceforge.net/DTD/sodipodi-0.dtd"
   xmlns="http://www.w3.org/2000/svg"
   xmlns:svg="http://www.w3.org/2000/svg">
  <sodipodi:namedview
     id="namedview1"
     pagecolor="#ffffff"
     bordercolor="#666666"
     borderopacity="1.0"
     inkscape:showpageshadow="2"
     inkscape:pageopacity="0.0"
     inkscape:pagecheckerboard="0"
     inkscape:deskcolor="#d1d1d1"
     inkscape:document-units="mm"
     inkscape:zoom="0.35634118"
     inkscape:cx="70.157483"
     inkscape:cy="1060.7811"
     inkscape:window-width="1920"
     inkscape:window-height="1011"
     inkscape:window-x="0"
     inkscape:window-y="0"
     inkscape:window-maximized="1"
     inkscape:current-layer="layer1" />
  <defs
     id="defs1">
    <inkscape:path-effect
       effect="simplify"
       id="path-effect15"
       is_visible="true"
       lpeversion="1.3"
       threshold="5"
       steps="1"
       smooth_angles="31.121495"
       helper_size="10"
       simplify_individual_paths="false"
       simplify_just_coalesce="false" />
    <inkscape:path-effect
       effect="simplify"
       id="path-effect16"
       is_visible="true"
       lpeversion="1.3"
       threshold="5"
       steps="1"
       smooth_angles="30.280374"
       helper_size="10"
       simplify_individual_paths="false"
       simplify_just_coalesce="false" />
    <inkscape:path-effect
       effect="simplify"
       id="path-effect15-2"
       is_visible="true"
       lpeversion="1.3"
       threshold="5"
       steps="1"
       smooth_angles="31.121495"
       helper_size="10"
       simplify_individual_paths="false"
       simplify_just_coalesce="false" />
    <inkscape:path-effect
       effect="simplify"
       id="path-effect16-6"
       is_visible="true"
       lpeversion="1.3"
       threshold="5"
       steps="1"
       smooth_angles="30.280374"
       helper_size="10"
       simplify_individual_paths="false"
       simplify_just_coalesce="false" />
    <inkscape:path-effect
       effect="simplify"
       id="path-effect15-7"
       is_visible="true"
       lpeversion="1.3"
       threshold="5"
       steps="1"
       smooth_angles="31.121495"
       helper_size="10"
       simplify_individual_paths="false"
       simplify_just_coalesce="false" />
    <inkscape:path-effect
       effect="simplify"
       id="path-effect16-5"
       is_visible="true"
       lpeversion="1.3"
       threshold="5"
       steps="1"
       smooth_angles="30.280374"
       helper_size="10"
       simplify_individual_paths="false"
       simplify_just_coalesce="false" />
  </defs>
  <g
     inkscape:label="Layer 1"
     inkscape:groupmode="layer"
     id="layer1">
    <g
       id="g16"
       style="display:inline;stroke:#ff0000;stroke-opacity:1"
       transform="rotate(5.6280921,143.67354,171.42166)">
      <path
         style="fill:none;stroke:#ff0000;stroke-width:0.264583px;stroke-linecap:butt;stroke-linejoin:miter;stroke-opacity:1"
         d="m 284.70465,16.318871 c 5.36869,19.937719 9.26549,40.365448 10.18855,61.026273 -1.35161,0.592942 -2.70322,1.185883 -4.05483,1.778825 0.8263,1.076448 1.6526,2.152896 2.4789,3.229344 -1.48836,0.852633 -2.97673,1.705265 -4.46509,2.557898 0.73052,1.468286 1.46103,2.936571 2.19155,4.404857 -0.59343,0.748963 -1.18685,1.497925 -1.78028,2.246888 -1.2002,0.05348 -2.40041,0.106969 -3.60061,0.160453 0.0635,1.139147 0.12705,2.278295 0.19057,3.417442 -10.28942,10.675409 -22.07384,19.730059 -33.47924,29.152549 -3.81863,3.15474 -7.70332,6.22856 -11.56877,9.32566 -7.67738,6.15133 -15.198,12.50366 -23.0274,18.46005 -6.15576,4.68313 -12.08762,9.67617 -18.46728,14.04939 -15.18975,10.41249 -31.27675,19.47502 -47.81919,27.49771 -13.75355,6.67014 -27.79202,12.72791 -41.68694,19.09469 -14.278702,6.54262 -28.480312,13.25622 -42.83347,19.63371 -11.085675,4.92567 -22.386825,9.367 -33.863361,13.29713 -6.336739,-2.07655 -12.673477,-4.1531 -19.010216,-6.22965 -5.8089858,-10.60029 -9.8203377,-22.36041 -10.45142,-34.49691 -0.3095625,-5.95327 0.2095988,-11.94927 1.5484699,-17.75863 1.3068509,-0.13001 2.6137017,-0.26003 3.9205526,-0.39004 -0.6347455,-1.86013 -1.2694911,-3.72025 -1.9042366,-5.58038 1.485404,0.11882 2.9708081,0.23764 4.4562121,0.35646 -0.170987,-1.43899 -0.341973,-2.87798 -0.51296,-4.31697 1.185556,0.22628 2.371113,0.45257 3.556669,0.67885 0.02221,-1.46994 0.04443,-2.93989 0.06664,-4.40983 11.21196,-7.9149 23.376042,-14.37137 35.817962,-20.11657 6.208319,-2.86677 12.428077,-5.7143 18.722567,-8.38613 13.30252,-5.64653 26.465774,-11.8432 38.514621,-19.81868 5.35158,-3.54238 10.65358,-7.1683 15.72379,-11.10697 5.86579,-4.55669 11.64113,-9.23209 17.28826,-14.05763 5.36566,-4.585018 10.53147,-9.396392 15.79877,-14.09275 12.08061,-10.771161 23.62414,-22.176781 36.24184,-32.313484 11.23783,-9.028154 22.36693,-18.211882 34.12812,-26.565819 6.2691,-4.452923 11.83928,-10.106571 18.80731,-13.358771 6.01074,-2.805402 12.02147,-5.6108049 18.03221,-8.4162074 2.4907,3.2556659 5.77164,5.8956684 9.53771,7.5659614 2.08013,0.922557 4.31476,1.396555 6.48094,2.063687 1.60322,0.493752 3.17011,1.147833 4.83308,1.417594 z"
         id="path15"
         sodipodi:nodetypes="ccccccccccccccccccccccccccsssscccccsc"
         inkscape:path-effect="#path-effect15"
         inkscape:original-d="m 284.70465,16.318871 c 5.98387,22.147098 9.38005,42.489183 10.18855,61.026273 l -4.05483,1.778825 2.4789,3.229344 -4.46509,2.557898 2.19155,4.404857 -1.78028,2.246888 -3.60061,0.160453 0.19057,3.417442 C 275.46218,105.9684 262.6529,115.75091 250.52114,125.82622 l -32.50429,26.07118 -18.70613,14.2311 c -15.25066,10.45228 -31.52884,18.81636 -47.68334,27.43182 -11.58405,5.62002 -25.28249,11.89568 -41.09531,18.827 l -43.03112,19.73145 c -11.300477,5.03958 -22.764886,9.55056 -34.393191,13.53297 L 14.097543,239.42209 C 4.130582,221.17713 1.4073882,203.65207 5.1945929,187.16655 l 3.9205526,-0.39004 -1.9042366,-5.58038 4.4562121,0.35646 -0.51296,-4.31697 3.556669,0.67885 0.06664,-4.40983 c 17.08249,-11.99102 33.636024,-19.26218 53.120986,-27.90523 13.465898,-5.62412 26.74615,-12.40749 39.840774,-20.35007 0.49759,-0.35443 1.00289,-0.67607 1.51211,-1.01699 0.91665,-0.6137 1.8542,-1.23049 2.82199,-1.88479 2.85563,-1.93061 5.85731,-4.0387 8.78514,-6.22508 4.46553,-3.33467 8.76298,-6.81838 12.60197,-9.93554 7.59755,-6.169 15.21994,-12.946777 22.47364,-19.628561 l 36.9512,-32.945953 c 10.13128,-8.13207 20.00991,-16.397199 30.78421,-24.19065 l 22.15122,-15.73394 18.03221,-8.4162074 c 4.31543,5.5280934 8.79483,7.8207994 15.0657,9.3553204 1.48072,0.362333 4.25894,1.501019 5.78603,1.691922 z" />
      <path
         style="display:inline;fill:none;stroke:#ff0000;stroke-width:0.264583px;stroke-linecap:butt;stroke-linejoin:miter;stroke-opacity:1"
         d="M 2.2038467,109.40353 C 3.4192118,101.85544 4.6345768,94.307349 5.8499419,86.759259 37.983307,58.380119 72.030155,32.159462 107.75608,8.4578186 c 1.24603,0.3372963 2.49205,0.6745927 3.73808,1.011889 0.67728,-1.2800348 1.35455,-2.5600696 2.03183,-3.8401044 0.9528,-0.3050619 1.90561,-0.6101237 2.85841,-0.9151856 1.22438,0.5123358 2.44875,1.0246717 3.67313,1.5370075 0.99224,-1.1144405 1.98448,-2.2288809 2.97672,-3.3433214 0.51752,-0.090536 1.05347,-0.1069112 1.55748,-0.2513111 0.25484,-0.073012 0.5231,-0.3305224 0.76474,-0.2418825 0.46307,0.1698666 0.95662,0.2875419 1.35446,0.5858273 0.56358,0.4225625 1.09125,0.8991012 1.63062,1.3549873 0.28246,0.2387508 0.56493,0.4775016 0.8474,0.7162524 1.39736,-0.7977624 2.79472,-1.5955248 4.19208,-2.3932872 0.73185,0.1397331 1.4637,0.2794663 2.19555,0.4191994 0.90983,1.1323442 1.81965,2.2646884 2.72948,3.3970326 1.45554,-0.4587549 2.91107,-0.9175099 4.36661,-1.3762648 7.39512,2.6282808 14.47137,6.0712369 21.39692,9.7416569 8.03047,4.256002 15.87065,8.861653 23.61393,13.617343 -0.37267,1.60939 -0.74535,3.21878 -1.11802,4.82817 1.4478,4.630144 2.89559,9.260289 4.34339,13.890433 -9.67162,14.54935 -21.46245,27.636112 -34.63553,39.109845 -8.64173,7.52693 -17.08147,15.292145 -26.0074,22.487805 -5.06033,4.07939 -10.13255,8.16823 -15.5417,11.77384 -2.35817,1.5719 -4.62229,3.29512 -7.07146,4.72057 -3.43721,2.0005 -6.78023,4.17238 -10.311624,6.0015 -7.539955,3.9054 -15.93313,6.21965 -24.442272,6.43915 -9.212907,0.23765 -18.331357,-2.08654 -26.740761,-5.75766 -2.519295,-1.09979 -4.927668,-2.42779 -7.368651,-3.68748 -12.195215,-6.29343 -24.39043,-12.58687 -36.5856453,-18.8803 z"
         id="path14"
         sodipodi:nodetypes="cccccccccccccccccccccsccccc"
         inkscape:path-effect="#path-effect16"
         inkscape:original-d="M 2.2038467,109.40353 5.8499419,86.759259 C 38.296812,58.108307 72.26553,32.007821 107.75608,8.4578186 l 3.73808,1.011889 2.03183,-3.8401044 2.85841,-0.9151856 3.67313,1.5370075 2.97672,-3.3433214 1.44105,-0.2113665 0.85227,-0.2923944 0.89852,0.3285266 0.5643,0.3117705 2.39856,2.0273372 4.19208,-2.3932872 2.19555,0.4191994 2.72948,3.3970326 4.36661,-1.3762648 c 10.91668,3.8350868 25.9203,11.6214179 45.01085,23.3589999 l -1.11802,4.82817 4.34339,13.890433 c -9.61474,14.437394 -21.00847,27.342389 -34.1812,38.714995 -7.75644,6.733066 -15.38201,13.763716 -23.27014,20.276065 -6.02301,4.97253 -12.21846,9.79066 -18.47746,14.2094 l -7.2475,4.84516 -10.391414,6.04794 c -18.359699,9.44192 -37.712857,8.5246 -58.059451,-2.75197 z" />
    </g>
    <path
       style="display:inline;fill:none;stroke:#ff0000;stroke-width:0.264583px;stroke-linecap:butt;stroke-linejoin:miter;stroke-opacity:1"
       d="M 2.2038467,109.40353 C 3.4192118,101.85544 4.6345768,94.307349 5.8499419,86.759259 37.983307,58.380119 72.030155,32.159462 107.75608,8.4578186 c 1.24603,0.3372963 2.49205,0.6745927 3.73808,1.011889 0.67728,-1.2800348 1.35455,-2.5600696 2.03183,-3.8401044 0.9528,-0.3050619 1.90561,-0.6101237 2.85841,-0.9151856 1.22438,0.5123358 2.44875,1.0246717 3.67313,1.5370075 0.99224,-1.1144405 1.98448,-2.2288809 2.97672,-3.3433214 0.51752,-0.090536 1.05347,-0.1069112 1.55748,-0.2513111 0.25484,-0.073012 0.5231,-0.3305224 0.76474,-0.2418825 0.46307,0.1698666 0.95662,0.2875419 1.35446,0.5858273 0.56358,0.4225625 1.09125,0.8991012 1.63062,1.3549873 0.28246,0.2387508 0.56493,0.4775016 0.8474,0.7162524 1.39736,-0.7977624 2.79472,-1.5955248 4.19208,-2.3932872 0.73185,0.1397331 1.4637,0.2794663 2.19555,0.4191994 0.90983,1.1323442 1.81965,2.2646884 2.72948,3.3970326 1.45554,-0.4587549 2.91107,-0.9175099 4.36661,-1.3762648 7.39512,2.6282808 14.47137,6.0712369 21.39692,9.7416569 8.03047,4.256002 15.87065,8.861653 23.61393,13.617343 -0.37267,1.60939 -0.74535,3.21878 -1.11802,4.82817 1.4478,4.630144 2.89559,9.260289 4.34339,13.890433 -9.67162,14.54935 -21.46245,27.636112 -34.63553,39.109845 -8.64173,7.52693 -17.08147,15.292145 -26.0074,22.487805 -5.06033,4.07939 -10.13255,8.16823 -15.5417,11.77384 -2.35817,1.5719 -4.62229,3.29512 -7.07146,4.72057 -3.43721,2.0005 -6.78023,4.17238 -10.311624,6.0015 -7.539955,3.9054 -15.93313,6.21965 -24.442272,6.43915 -9.212907,0.23765 -18.331357,-2.08654 -26.740761,-5.75766 -2.519295,-1.09979 -4.927668,-2.42779 -7.368651,-3.68748 -12.195215,-6.29343 -24.39043,-12.58687 -36.5856453,-18.8803 z"
       id="path14-2"
       sodipodi:nodetypes="cccccccccccccccccccccsccccc"
       inkscape:path-effect="#path-effect16-5"
       inkscape:original-d="M 2.2038467,109.40353 5.8499419,86.759259 C 38.296812,58.108307 72.26553,32.007821 107.75608,8.4578186 l 3.73808,1.011889 2.03183,-3.8401044 2.85841,-0.9151856 3.67313,1.5370075 2.97672,-3.3433214 1.44105,-0.2113665 0.85227,-0.2923944 0.89852,0.3285266 0.5643,0.3117705 2.39856,2.0273372 4.19208,-2.3932872 2.19555,0.4191994 2.72948,3.3970326 4.36661,-1.3762648 c 10.91668,3.8350868 25.9203,11.6214179 45.01085,23.3589999 l -1.11802,4.82817 4.34339,13.890433 c -9.61474,14.437394 -21.00847,27.342389 -34.1812,38.714995 -7.75644,6.733066 -15.38201,13.763716 -23.27014,20.276065 -6.02301,4.97253 -12.21846,9.79066 -18.47746,14.2094 l -7.2475,4.84516 -10.391414,6.04794 c -18.359699,9.44192 -37.712857,8.5246 -58.059451,-2.75197 z"
       transform="rotate(16.609014,-365.88284,512.4689)" />
  </g>
</svg>
