<?xml version="1.0" encoding="UTF-8" standalone="no"?>
<!-- Created with Inkscape (http://www.inkscape.org/) -->

<svg
   width="197.17796mm"
   height="95.851059mm"
   viewBox="0 0 197.17796 95.851059"
   version="1.1"
   id="svg1"
   inkscape:version="1.4 (e7c3feb100, 2024-10-09)"
   sodipodi:docname="left.svg"
   inkscape:export-filename="../PDF/left.pdf"
   inkscape:export-xdpi="47.96"
   inkscape:export-ydpi="47.96"
   xmlns:inkscape="http://www.inkscape.org/namespaces/inkscape"
   xmlns:sodipodi="http://sodipodi.sourceforge.net/DTD/sodipodi-0.dtd"
   xmlns="http://www.w3.org/2000/svg"
   xmlns:svg="http://www.w3.org/2000/svg">
  <sodipodi:namedview
     id="namedview1"
     pagecolor="#ffffff"
     bordercolor="#666666"
     borderopacity="1.0"
     inkscape:showpageshadow="2"
     inkscape:pageopacity="0.0"
     inkscape:pagecheckerboard="0"
     inkscape:deskcolor="#d1d1d1"
     inkscape:document-units="mm"
     inkscape:zoom="0.71268238"
     inkscape:cx="373.23779"
     inkscape:cy="433.57323"
     inkscape:window-width="1920"
     inkscape:window-height="1011"
     inkscape:window-x="0"
     inkscape:window-y="0"
     inkscape:window-maximized="1"
     inkscape:current-layer="layer1" />
  <defs
     id="defs1">
    <inkscape:path-effect
       effect="simplify"
       id="path-effect15"
       is_visible="true"
       lpeversion="1.3"
       threshold="5"
       steps="1"
       smooth_angles="31.121495"
       helper_size="10"
       simplify_individual_paths="false"
       simplify_just_coalesce="false" />
    <inkscape:path-effect
       effect="simplify"
       id="path-effect16"
       is_visible="true"
       lpeversion="1.3"
       threshold="5"
       steps="1"
       smooth_angles="30.280374"
       helper_size="10"
       simplify_individual_paths="false"
       simplify_just_coalesce="false" />
  </defs>
  <g
     inkscape:label="Layer 1"
     inkscape:groupmode="layer"
     id="layer1"
     transform="translate(-6.4758184,-33.967583)">
    <path
       style="display:inline;fill:none;stroke:#ff0000;stroke-width:0.264583px;stroke-linecap:butt;stroke-linejoin:miter;stroke-opacity:1"
       d="M 2.2038467,109.40353 C 3.4192118,101.85544 4.6345768,94.307349 5.8499419,86.759259 37.983307,58.380119 72.030155,32.159462 107.75608,8.4578186 c 1.24603,0.3372963 2.49205,0.6745927 3.73808,1.011889 0.67728,-1.2800348 1.35455,-2.5600696 2.03183,-3.8401044 0.9528,-0.3050619 1.90561,-0.6101237 2.85841,-0.9151856 1.22438,0.5123358 2.44875,1.0246717 3.67313,1.5370075 0.99224,-1.1144405 1.98448,-2.2288809 2.97672,-3.3433214 0.51752,-0.090536 1.05347,-0.1069112 1.55748,-0.2513111 0.25484,-0.073012 0.5231,-0.3305224 0.76474,-0.2418825 0.46307,0.1698666 0.95662,0.2875419 1.35446,0.5858273 0.56358,0.4225625 1.09125,0.8991012 1.63062,1.3549873 0.28246,0.2387508 0.56493,0.4775016 0.8474,0.7162524 1.39736,-0.7977624 2.79472,-1.5955248 4.19208,-2.3932872 0.73185,0.1397331 1.4637,0.2794663 2.19555,0.4191994 0.90983,1.1323442 1.81965,2.2646884 2.72948,3.3970326 1.45554,-0.4587549 2.91107,-0.9175099 4.36661,-1.3762648 7.39512,2.6282808 14.47137,6.0712369 21.39692,9.7416569 8.03047,4.256002 15.87065,8.861653 23.61393,13.617343 -0.37267,1.60939 -0.74535,3.21878 -1.11802,4.82817 1.4478,4.630144 2.89559,9.260289 4.34339,13.890433 -9.67162,14.54935 -21.46245,27.636112 -34.63553,39.109845 -8.64173,7.52693 -17.08147,15.292145 -26.0074,22.487805 -5.06033,4.07939 -10.13255,8.16823 -15.5417,11.77384 -2.35817,1.5719 -4.62229,3.29512 -7.07146,4.72057 -3.43721,2.0005 -6.78023,4.17238 -10.311624,6.0015 -7.539955,3.9054 -15.93313,6.21965 -24.442272,6.43915 -9.212907,0.23765 -18.331357,-2.08654 -26.740761,-5.75766 -2.519295,-1.09979 -4.927668,-2.42779 -7.368651,-3.68748 -12.195215,-6.29343 -24.39043,-12.58687 -36.5856453,-18.8803 z"
       id="path14"
       sodipodi:nodetypes="cccccccccccccccccccccsccccc"
       transform="rotate(36.968079,88.936607,87.781123)"
       inkscape:original-d="M 2.2038467,109.40353 5.8499419,86.759259 C 38.296812,58.108307 72.26553,32.007821 107.75608,8.4578186 l 3.73808,1.011889 2.03183,-3.8401044 2.85841,-0.9151856 3.67313,1.5370075 2.97672,-3.3433214 1.44105,-0.2113665 0.85227,-0.2923944 0.89852,0.3285266 0.5643,0.3117705 2.39856,2.0273372 4.19208,-2.3932872 2.19555,0.4191994 2.72948,3.3970326 4.36661,-1.3762648 c 10.91668,3.8350868 25.9203,11.6214179 45.01085,23.3589999 l -1.11802,4.82817 4.34339,13.890433 c -9.61474,14.437394 -21.00847,27.342389 -34.1812,38.714995 -7.75644,6.733066 -15.38201,13.763716 -23.27014,20.276065 -6.02301,4.97253 -12.21846,9.79066 -18.47746,14.2094 l -7.2475,4.84516 -10.391414,6.04794 c -18.359699,9.44192 -37.712857,8.5246 -58.059451,-2.75197 z"
       inkscape:path-effect="#path-effect16" />
  </g>
</svg>
