<?xml version="1.0" encoding="UTF-8" standalone="no"?>
<!-- Created with Inkscape (http://www.inkscape.org/) -->

<svg
   width="349.77444mm"
   height="99.653664mm"
   viewBox="0 0 349.77444 99.653664"
   version="1.1"
   id="svg1"
   inkscape:version="1.4 (e7c3feb100, 2024-10-09)"
   sodipodi:docname="right.svg"
   inkscape:export-filename="../PDF/right.pdf"
   inkscape:export-xdpi="47.96"
   inkscape:export-ydpi="47.96"
   xmlns:inkscape="http://www.inkscape.org/namespaces/inkscape"
   xmlns:sodipodi="http://sodipodi.sourceforge.net/DTD/sodipodi-0.dtd"
   xmlns="http://www.w3.org/2000/svg"
   xmlns:svg="http://www.w3.org/2000/svg">
  <sodipodi:namedview
     id="namedview1"
     pagecolor="#ffffff"
     bordercolor="#666666"
     borderopacity="1.0"
     inkscape:showpageshadow="2"
     inkscape:pageopacity="0.0"
     inkscape:pagecheckerboard="0"
     inkscape:deskcolor="#d1d1d1"
     inkscape:document-units="mm"
     inkscape:zoom="0.71268238"
     inkscape:cx="870.65433"
     inkscape:cy="152.94331"
     inkscape:window-width="1920"
     inkscape:window-height="1011"
     inkscape:window-x="0"
     inkscape:window-y="0"
     inkscape:window-maximized="1"
     inkscape:current-layer="layer1" />
  <defs
     id="defs1">
    <inkscape:path-effect
       effect="simplify"
       id="path-effect15"
       is_visible="true"
       lpeversion="1.3"
       threshold="5"
       steps="1"
       smooth_angles="31.121495"
       helper_size="10"
       simplify_individual_paths="false"
       simplify_just_coalesce="false" />
    <inkscape:path-effect
       effect="simplify"
       id="path-effect16"
       is_visible="true"
       lpeversion="1.3"
       threshold="5"
       steps="1"
       smooth_angles="30.280374"
       helper_size="10"
       simplify_individual_paths="false"
       simplify_just_coalesce="false" />
  </defs>
  <g
     inkscape:label="Layer 1"
     inkscape:groupmode="layer"
     id="layer1"
     transform="translate(125.25341,-78.475371)">
    <path
       style="fill:none;stroke:#ff0000;stroke-width:0.264583px;stroke-linecap:butt;stroke-linejoin:miter;stroke-opacity:1"
       d="m 284.70465,16.318871 c 5.36869,19.937719 9.26549,40.365448 10.18855,61.026273 -1.35161,0.592942 -2.70322,1.185883 -4.05483,1.778825 0.8263,1.076448 1.6526,2.152896 2.4789,3.229344 -1.48836,0.852633 -2.97673,1.705265 -4.46509,2.557898 0.73052,1.468286 1.46103,2.936571 2.19155,4.404857 -0.59343,0.748963 -1.18685,1.497925 -1.78028,2.246888 -1.2002,0.05348 -2.40041,0.106969 -3.60061,0.160453 0.0635,1.139147 0.12705,2.278295 0.19057,3.417442 -10.28942,10.675409 -22.07384,19.730059 -33.47924,29.152549 -3.81863,3.15474 -7.70332,6.22856 -11.56877,9.32566 -7.67738,6.15133 -15.198,12.50366 -23.0274,18.46005 -6.15576,4.68313 -12.08762,9.67617 -18.46728,14.04939 -15.18975,10.41249 -31.27675,19.47502 -47.81919,27.49771 -13.75355,6.67014 -27.79202,12.72791 -41.68694,19.09469 -14.278702,6.54262 -28.480312,13.25622 -42.83347,19.63371 -11.085675,4.92567 -22.386825,9.367 -33.863361,13.29713 -6.336739,-2.07655 -12.673477,-4.1531 -19.010216,-6.22965 -5.8089858,-10.60029 -9.8203377,-22.36041 -10.45142,-34.49691 -0.3095625,-5.95327 0.2095988,-11.94927 1.5484699,-17.75863 1.3068509,-0.13001 2.6137017,-0.26003 3.9205526,-0.39004 -0.6347455,-1.86013 -1.2694911,-3.72025 -1.9042366,-5.58038 1.485404,0.11882 2.9708081,0.23764 4.4562121,0.35646 -0.170987,-1.43899 -0.341973,-2.87798 -0.51296,-4.31697 1.185556,0.22628 2.371113,0.45257 3.556669,0.67885 0.02221,-1.46994 0.04443,-2.93989 0.06664,-4.40983 11.21196,-7.9149 23.376042,-14.37137 35.817962,-20.11657 6.208319,-2.86677 12.428077,-5.7143 18.722567,-8.38613 13.30252,-5.64653 26.465774,-11.8432 38.514621,-19.81868 5.35158,-3.54238 10.65358,-7.1683 15.72379,-11.10697 5.86579,-4.55669 11.64113,-9.23209 17.28826,-14.05763 5.36566,-4.585018 10.53147,-9.396392 15.79877,-14.09275 12.08061,-10.771161 23.62414,-22.176781 36.24184,-32.313484 11.23783,-9.028154 22.36693,-18.211882 34.12812,-26.565819 6.2691,-4.452923 11.83928,-10.106571 18.80731,-13.358771 6.01074,-2.805402 12.02147,-5.6108049 18.03221,-8.4162074 2.4907,3.2556659 5.77164,5.8956684 9.53771,7.5659614 2.08013,0.922557 4.31476,1.396555 6.48094,2.063687 1.60322,0.493752 3.17011,1.147833 4.83308,1.417594 z"
       id="path15"
       sodipodi:nodetypes="ccccccccccccccccccccccccccsssscccccsc"
       inkscape:path-effect="#path-effect15"
       inkscape:original-d="m 284.70465,16.318871 c 5.98387,22.147098 9.38005,42.489183 10.18855,61.026273 l -4.05483,1.778825 2.4789,3.229344 -4.46509,2.557898 2.19155,4.404857 -1.78028,2.246888 -3.60061,0.160453 0.19057,3.417442 C 275.46218,105.9684 262.6529,115.75091 250.52114,125.82622 l -32.50429,26.07118 -18.70613,14.2311 c -15.25066,10.45228 -31.52884,18.81636 -47.68334,27.43182 -11.58405,5.62002 -25.28249,11.89568 -41.09531,18.827 l -43.03112,19.73145 c -11.300477,5.03958 -22.764886,9.55056 -34.393191,13.53297 L 14.097543,239.42209 C 4.130582,221.17713 1.4073882,203.65207 5.1945929,187.16655 l 3.9205526,-0.39004 -1.9042366,-5.58038 4.4562121,0.35646 -0.51296,-4.31697 3.556669,0.67885 0.06664,-4.40983 c 17.08249,-11.99102 33.636024,-19.26218 53.120986,-27.90523 13.465898,-5.62412 26.74615,-12.40749 39.840774,-20.35007 0.49759,-0.35443 1.00289,-0.67607 1.51211,-1.01699 0.91665,-0.6137 1.8542,-1.23049 2.82199,-1.88479 2.85563,-1.93061 5.85731,-4.0387 8.78514,-6.22508 4.46553,-3.33467 8.76298,-6.81838 12.60197,-9.93554 7.59755,-6.169 15.21994,-12.946777 22.47364,-19.628561 l 36.9512,-32.945953 c 10.13128,-8.13207 20.00991,-16.397199 30.78421,-24.19065 l 22.15122,-15.73394 18.03221,-8.4162074 c 4.31543,5.5280934 8.79483,7.8207994 15.0657,9.3553204 1.48072,0.362333 4.25894,1.501019 5.78603,1.691922 z"
       transform="rotate(34.696117,115.10283,-36.698538)" />
  </g>
</svg>
